<svg width="150" height="150" viewBox="0 0 150 150" fill="none" xmlns="http://www.w3.org/2000/svg">
<path d="M37.5 106.25C37.5 93.75 62.5 86.875 75 86.875C87.5 86.875 112.5 93.75 112.5 106.25V112.5H37.5M93.75 56.25C93.75 61.2228 91.7746 65.9919 88.2583 69.5083C84.7419 73.0246 79.9728 75 75 75C70.0272 75 65.2581 73.0246 61.7417 69.5083C58.2254 65.9919 56.25 61.2228 56.25 56.25C56.25 51.2772 58.2254 46.5081 61.7417 42.9917C65.2581 39.4754 70.0272 37.5 75 37.5C79.9728 37.5 84.7419 39.4754 88.2583 42.9917C91.7746 46.5081 93.75 51.2772 93.75 56.25ZM18.75 31.25V118.75C18.75 122.065 20.067 125.245 22.4112 127.589C24.7554 129.933 27.9348 131.25 31.25 131.25H118.75C122.065 131.25 125.245 129.933 127.589 127.589C129.933 125.245 131.25 122.065 131.25 118.75V31.25C131.25 27.9348 129.933 24.7554 127.589 22.4112C125.245 20.067 122.065 18.75 118.75 18.75H31.25C27.9348 18.75 24.7554 20.067 22.4112 22.4112C20.067 24.7554 18.75 27.9348 18.75 31.25Z" fill="black"/>
</svg>
