<svg width="150" height="150" viewBox="0 0 150 150" fill="none" xmlns="http://www.w3.org/2000/svg">
<rect width="150" height="150" fill="white"/>
<path d="M85.4276 3.95093V18.7582H145.338C147.913 18.7582 150 20.8453 150 23.4202V125.337C150 127.911 147.913 129.998 145.338 129.998H85.4276V146.049L0 130.93V19.0429L85.4276 3.95093ZM57.08 66.1233C57.3674 61.5711 56.2866 56.9566 53.2245 54.0052C49.5806 50.4922 47.1513 49.877 36.7336 50.4164L28.2709 50.8546V98.654H36.8754V82.0605C52.7499 83.4155 56.4296 74.2584 57.08 66.1233ZM47.1902 66.1233C46.7405 73.8905 43.1432 73.5635 36.8748 73.4563V59.0135C43.9198 58.7651 46.9608 59.7301 47.1902 66.1233ZM138.405 66.0814L122.259 82.9218L105.381 66.0814H118V43.9564H85.4276V87.2106L98.3979 74.4471L117.693 93.7564C117.693 93.7564 98.8087 112.175 98.3607 112.175C97.9134 112.175 85.4276 100.268 85.4276 100.268V125.082H145.042V23.6748H85.4276V35.9663H125.99V66.0811L138.405 66.0814Z" fill="#1F5135"/>
</svg>
