<svg width="105" height="105" viewBox="0 0 105 105" fill="none" xmlns="http://www.w3.org/2000/svg">
<path d="M87.5 87.5C72.4062 87.5 52.5 96.25 52.5 96.25V48.125C52.5 48.125 72.1875 39.375 91.875 39.375L87.5 87.5Z" fill="#1E1E1E"/>
<path d="M17.5 87.5C32.5938 87.5 52.5 96.25 52.5 96.25V48.125C52.5 48.125 32.8125 39.375 13.125 39.375L17.5 87.5Z" fill="#2D2D2D"/>
<path d="M52.5 43.75C62.165 43.75 70 35.915 70 26.25C70 16.585 62.165 8.75 52.5 8.75C42.835 8.75 35 16.585 35 26.25C35 35.915 42.835 43.75 52.5 43.75Z" fill="#FFB74D"/>
<path d="M89.6875 70H91.875C93.1875 70 94.0625 69.125 94.0625 67.8125V59.0625C94.0625 57.75 93.1875 56.875 91.875 56.875H89.6875C85.9687 56.875 83.125 59.7187 83.125 63.4375C83.125 67.1563 85.9687 70 89.6875 70ZM15.3125 56.875H13.125C11.8125 56.875 10.9375 57.75 10.9375 59.0625V67.8125C10.9375 69.125 11.8125 70 13.125 70H15.3125C19.0313 70 21.875 67.1563 21.875 63.4375C21.875 59.7187 19.0313 56.875 15.3125 56.875Z" fill="#FFB74D"/>
</svg>
