<svg width="50" height="50" viewBox="0 0 50 50" fill="none" xmlns="http://www.w3.org/2000/svg">
<path d="M25 14.0625C26.036 14.0625 27.0296 13.6509 27.7621 12.9184C28.4947 12.1858 28.9062 11.1923 28.9062 10.1562C28.9062 9.12025 28.4947 8.12668 27.7621 7.39411C27.0296 6.66155 26.036 6.25 25 6.25C23.964 6.25 22.9704 6.66155 22.2379 7.39411C21.5053 8.12668 21.0938 9.12025 21.0938 10.1562C21.0938 11.1923 21.5053 12.1858 22.2379 12.9184C22.9704 13.6509 23.964 14.0625 25 14.0625Z" fill="black"/>
<path d="M25 14.0625C26.8656 14.0625 28.5312 15.2563 29.125 17.0281L29.3969 17.8406C29.4323 17.9446 29.4423 18.0555 29.4261 18.1641C29.4099 18.2727 29.3679 18.3758 29.3037 18.4648C29.2394 18.5539 29.1548 18.6262 29.0568 18.6758C28.9588 18.7255 28.8504 18.7509 28.7406 18.75H21.2719C21.1625 18.7495 21.0549 18.7232 20.9577 18.6732C20.8605 18.6232 20.7764 18.5509 20.7125 18.4622C20.6485 18.3736 20.6064 18.2711 20.5895 18.163C20.5727 18.055 20.5816 17.9445 20.6156 17.8406L20.8875 17.0281C21.1768 16.1634 21.7309 15.4116 22.4712 14.8794C23.2116 14.3471 24.1007 14.0613 25.0125 14.0625H25ZM15.625 26.5625C15.625 26.1481 15.7896 25.7507 16.0826 25.4576C16.3757 25.1646 16.7731 25 17.1875 25H32.8125C33.2269 25 33.6243 25.1646 33.9174 25.4576C34.2104 25.7507 34.375 26.1481 34.375 26.5625C34.375 26.9769 34.2104 27.3743 33.9174 27.6674C33.6243 27.9604 33.2269 28.125 32.8125 28.125H17.1875C16.7731 28.125 16.3757 27.9604 16.0826 27.6674C15.7896 27.3743 15.625 26.9769 15.625 26.5625ZM15.625 32.8125C15.625 32.3981 15.7896 32.0007 16.0826 31.7076C16.3757 31.4146 16.7731 31.25 17.1875 31.25H32.8125C33.2269 31.25 33.6243 31.4146 33.9174 31.7076C34.2104 32.0007 34.375 32.3981 34.375 32.8125C34.375 33.2269 34.2104 33.6243 33.9174 33.9174C33.6243 34.2104 33.2269 34.375 32.8125 34.375H17.1875C16.7731 34.375 16.3757 34.2104 16.0826 33.9174C15.7896 33.6243 15.625 33.2269 15.625 32.8125ZM17.1875 37.5C16.7731 37.5 16.3757 37.6646 16.0826 37.9576C15.7896 38.2507 15.625 38.6481 15.625 39.0625C15.625 39.4769 15.7896 39.8743 16.0826 40.1674C16.3757 40.4604 16.7731 40.625 17.1875 40.625H23.4375C23.8519 40.625 24.2493 40.4604 24.5424 40.1674C24.8354 39.8743 25 39.4769 25 39.0625C25 38.6481 24.8354 38.2507 24.5424 37.9576C24.2493 37.6646 23.8519 37.5 23.4375 37.5H17.1875Z" fill="black"/>
<path fill-rule="evenodd" clip-rule="evenodd" d="M7.28127 5.12502C6.2594 7.13127 6.2594 9.75003 6.2594 15V35C6.2594 40.25 6.2594 42.875 7.28127 44.875C8.18327 46.6348 9.61525 48.0668 11.375 48.9688C13.3813 49.9906 16 49.9906 21.25 49.9906H28.75C34 49.9906 36.625 49.9906 38.625 48.9688C40.3873 48.0703 41.8203 46.6373 42.7188 44.875C43.7406 42.8688 43.7406 40.25 43.7406 35V15C43.7406 9.75003 43.7406 7.12502 42.7188 5.12502C41.8203 3.36272 40.3873 1.92979 38.625 1.03127C36.6188 0.00939951 34 0.00939941 28.75 0.00939941H21.25C16 0.00939941 13.375 0.00939951 11.375 1.03127C9.61525 1.93327 8.18327 3.36525 7.28127 5.12502ZM28.75 3.13127H21.25C18.5719 3.13127 16.75 3.13127 15.3438 3.25002C13.975 3.3594 13.2719 3.56252 12.7844 3.81252C11.6084 4.41172 10.6523 5.36781 10.0531 6.54377C9.80315 7.03127 9.60002 7.73127 9.49065 9.10315C9.37502 10.5094 9.3719 12.3219 9.3719 15.0094V35.0094C9.3719 37.6875 9.37502 39.5094 9.49065 40.9156C9.60315 42.2844 9.80627 42.9875 10.0531 43.475C10.6531 44.65 11.6094 45.6063 12.7844 46.2063C13.2719 46.4563 13.975 46.6594 15.3438 46.7688C16.75 46.8813 18.5625 46.8844 21.25 46.8844H28.75C31.4281 46.8844 33.25 46.8844 34.6563 46.7688C36.025 46.6563 36.7281 46.4531 37.2156 46.2063C38.3906 45.6063 39.3469 44.65 39.9469 43.475C40.1969 42.9875 40.4 42.2844 40.5094 40.9125C40.625 39.5063 40.6281 37.6938 40.6281 35.0063V15.0063C40.6281 12.3313 40.625 10.5063 40.5094 9.10002C40.3969 7.7344 40.1938 7.03127 39.9469 6.54377C39.3477 5.36781 38.3916 4.41172 37.2156 3.81252C36.7281 3.56252 36.025 3.3594 34.6563 3.25002C33.25 3.1344 31.4375 3.13127 28.75 3.13127Z" fill="black"/>
</svg>
