<svg width="129" height="129" viewBox="0 0 129 129" fill="none" xmlns="http://www.w3.org/2000/svg">
<path d="M61.6513 87.4942C62.4071 88.2492 63.4317 88.6732 64.5 88.6732C65.5683 88.6732 66.5929 88.2492 67.3488 87.4942L79.4425 75.4059C80.1546 74.6417 80.5423 73.6309 80.5238 72.5866C80.5054 71.5422 80.0823 70.5457 79.3437 69.8072C78.6051 69.0686 77.6087 68.6455 76.5643 68.6271C75.52 68.6086 74.5092 68.9963 73.745 69.7084L64.5 78.9372L55.255 69.6976C54.883 69.3128 54.438 69.0059 53.9461 68.7948C53.4541 68.5838 52.9251 68.4728 52.3898 68.4684C51.8546 68.464 51.3238 68.5663 50.8285 68.7692C50.3331 68.9722 49.8832 69.2717 49.5049 69.6504C49.1265 70.0291 48.8274 70.4793 48.6249 70.9748C48.4225 71.4703 48.3207 72.0012 48.3256 72.5365C48.3305 73.0717 48.442 73.6007 48.6535 74.0924C48.865 74.5841 49.1723 75.0288 49.5575 75.4005L61.6513 87.4942ZM64.5 48.6706C63.3596 48.6706 62.2659 48.2176 61.4595 47.4112C60.653 46.6048 60.2 45.511 60.2 44.3706C60.2 43.2302 60.653 42.1365 61.4595 41.3301C62.2659 40.5237 63.3596 40.0706 64.5 40.0706C65.6404 40.0706 66.7342 40.5237 67.5406 41.3301C68.347 42.1365 68.8 43.2302 68.8 44.3706C68.8 45.511 68.347 46.6048 67.5406 47.4112C66.7342 48.2176 65.6404 48.6706 64.5 48.6706ZM60.2 59.5066C60.2 60.0713 60.3112 60.6305 60.5273 61.1522C60.7434 61.6739 61.0602 62.1479 61.4595 62.5472C61.8587 62.9465 62.3328 63.2632 62.8545 63.4793C63.3762 63.6954 63.9353 63.8066 64.5 63.8066C65.0647 63.8066 65.6239 63.6954 66.1456 63.4793C66.6673 63.2632 67.1413 62.9465 67.5406 62.5472C67.9399 62.1479 68.2566 61.6739 68.4727 61.1522C68.6888 60.6305 68.8 60.0713 68.8 59.5066C68.8 58.3662 68.347 57.2725 67.5406 56.4661C66.7342 55.6597 65.6404 55.2066 64.5 55.2066C63.3596 55.2066 62.2659 55.6597 61.4595 56.4661C60.653 57.2725 60.2 58.3662 60.2 59.5066Z" fill="black"/>
<path fill-rule="evenodd" clip-rule="evenodd" d="M64.5 10.7554C53.8085 10.7554 43.5548 15.0026 35.9948 22.5626C28.4347 30.1227 24.1875 40.3763 24.1875 51.0679V77.9429C24.1875 88.6344 28.4347 98.8881 35.9948 106.448C43.5548 114.008 53.8085 118.255 64.5 118.255C75.1915 118.255 85.4452 114.008 93.0052 106.448C100.565 98.8881 104.812 88.6344 104.812 77.9429V51.0679C104.812 40.3763 100.565 30.1227 93.0052 22.5626C85.4452 15.0026 75.1915 10.7554 64.5 10.7554ZM32.25 51.0679C32.25 42.5146 35.6478 34.3117 41.6958 28.2637C47.7439 22.2156 55.9468 18.8179 64.5 18.8179C73.0532 18.8179 81.2561 22.2156 87.3042 28.2637C93.3522 34.3117 96.75 42.5146 96.75 51.0679V77.9429C96.75 86.4961 93.3522 94.699 87.3042 100.747C81.2561 106.795 73.0532 110.193 64.5 110.193C55.9468 110.193 47.7439 106.795 41.6958 100.747C35.6478 94.699 32.25 86.4961 32.25 77.9429V51.0679Z" fill="black"/>
</svg>
