<svg width="150" height="150" viewBox="0 0 150 150" fill="none" xmlns="http://www.w3.org/2000/svg">
<g clip-path="url(#clip0_1_75)">
<path fill-rule="evenodd" clip-rule="evenodd" d="M136.25 63.2499C134.5 65.1249 125.137 75.7437 123.762 77.6124C122.387 79.4874 120.512 81.6124 118.956 83.8624C115.357 88.7133 111.899 93.6674 108.587 98.7187C108.407 98.9452 108.274 99.2062 108.198 99.4858C108.122 99.7654 108.104 100.058 108.145 100.344C108.186 100.631 108.285 100.907 108.437 101.154C108.588 101.401 108.788 101.614 109.025 101.781C109.481 102.136 110.06 102.296 110.634 102.226C111.207 102.155 111.73 101.861 112.087 101.406C116.15 96.7812 120.519 92.4749 124.575 87.9187C127.325 84.8562 137.062 73.1812 139.687 70.0562C142.312 66.9312 140.375 58.8187 136.25 63.2499Z" fill="black"/>
<path fill-rule="evenodd" clip-rule="evenodd" d="M148.119 45.5187C148.057 44.9829 147.8 44.4887 147.396 44.1311C146.992 43.7735 146.471 43.5777 145.931 43.5812C145.642 43.5726 145.353 43.6232 145.084 43.7301C144.815 43.837 144.57 43.9978 144.365 44.2027C144.16 44.4075 143.999 44.6521 143.893 44.9215C143.786 45.1908 143.735 45.4791 143.744 45.7687C143.744 49.7687 144.181 65.875 144.056 67.9312C143.931 70.825 143.412 73.6812 142.494 76.4312C142.02 77.6567 141.346 78.7951 140.5 79.8C139 81.675 137.187 83.425 135.625 85.05L122.269 99.7812C116.019 106.719 110.775 114.519 104.656 121.512C103.219 123.075 101.594 124.45 100.031 125.95C100.38 122.586 100.547 119.207 100.531 115.825V111.019C100.531 109.456 100.094 107.837 99.7812 106.337C99.1562 103.275 98.225 100.406 97.4125 97.4062C103.35 90.1 109.587 83.1062 115.581 75.8625C119.394 71.3687 122.956 66.75 126.637 62.1875C132.137 55.3187 137.5 48.325 143.125 41.5187C146.312 37.9562 145.062 36.8937 144.375 36.3937C141.753 34.2132 138.826 32.4277 135.687 31.0937C131.261 29.1912 126.691 27.6446 122.019 26.4687L89.4812 18.6C84.7504 17.4399 79.9206 16.7284 75.0562 16.475C71.388 16.2691 67.7157 16.8004 64.2562 18.0375C61.9979 19.075 59.9146 20.3875 58.0062 21.975C55.075 24.1 52.6375 26.6 50.0812 28.5937C46.2687 32.0312 42.5812 35.6562 39.15 39.4C33.9687 44.9562 29.1 50.7625 24.1625 56.6312C20.1625 61.3187 15.7375 65.5625 12.05 70.3687C10.3855 72.5353 8.90132 74.8347 7.61248 77.2437C7.52037 77.5494 7.52037 77.8755 7.61248 78.1812C6.61248 79.002 5.76039 79.9583 5.05623 81.05C3.46803 83.4869 2.28599 86.1655 1.55623 88.9812C-0.520451 95.0523 -0.520451 101.641 1.55623 107.712C3.79345 113.562 7.70412 118.622 12.8 122.262C17.3 125.387 22.4062 127.512 27.7875 128.512C35.2875 129.694 42.8687 130.237 50.4562 130.131C57.075 130.131 65.5062 130.756 74.0562 131.381C82.6187 132.006 90.9187 132.756 97.5375 133.569C97.5375 133.569 106.219 126.569 107.906 124.944C114.525 118.7 120.394 111.269 127.075 104.962C129.075 103.087 131.012 101.15 132.825 99.1562C135.569 96.2187 138.125 92.9125 140.812 90.1625C142.654 88.1939 144.366 86.1083 145.937 83.9187C147.087 82.2062 148.002 80.375 148.681 78.425C149.619 74.9875 150.062 71.4375 149.994 67.875C149.994 60.3125 148.369 52.1375 148.119 45.5187ZM17.2937 71.1812C20.7937 67.4312 24.7937 63.9375 28.35 60.1312C33.5192 54.6657 38.7868 49.294 44.15 44.0187C47.6437 40.5812 51.2687 37.3312 55.1375 34.0875C57.3875 32.15 59.7 29.775 62.2562 27.8437C63.6729 26.6562 65.2146 25.6562 66.8812 24.8437C69.3692 24 71.9954 23.6394 74.6187 23.7812C79.1187 23.9229 83.5729 24.4437 87.9812 25.3437L120.769 31.5937C125.215 32.5104 129.565 33.7604 133.819 35.3437C135.794 36.2187 137.69 37.2583 139.506 38.4625C133.256 44.7062 127.319 50.5125 121.519 56.8812C119.081 59.6312 116.644 62.4437 114.269 65.3125C111.9 68.1875 109.587 71.125 107.469 74.1187C89.9812 98.4062 101.219 95.1 80.7375 90.725C64.2562 87.2875 48.1437 81.05 31.3437 78.4875C27.2812 77.925 22.4187 76.3625 17.7937 75.9875C16.2433 75.9527 14.6933 76.0784 13.1687 76.3625C14.4562 74.5666 15.8312 72.8395 17.2937 71.1812ZM74.6187 125.881C66.7469 125.008 58.8577 124.3 50.9562 123.756C43.7263 123.589 36.5216 122.839 29.4125 121.512C25.0508 120.618 20.9365 118.784 17.3562 116.137C13.4029 113.346 10.3804 109.431 8.68123 104.9C7.178 100.38 7.178 95.4949 8.68123 90.975C9.16456 89.2208 9.83123 87.5354 10.6812 85.9187C11.1478 84.8236 12.0186 83.9506 13.1125 83.4812C15.175 83.0687 17.3 83.0687 19.3562 83.4812C23.3562 83.9187 27.4125 84.9187 30.7812 85.2937C47.4562 86.9812 63.6312 92.3562 80.1187 95.1625C84.2437 95.925 88.4062 96.4458 92.6062 96.725C92.3562 100.742 92.3562 104.758 92.6062 108.775C92.8854 111.15 93.2812 113.502 93.7937 115.831C96.4187 132.625 100.975 128.694 74.6187 125.881Z" fill="black"/>
<path fill-rule="evenodd" clip-rule="evenodd" d="M82.7999 101.969C75.8887 99.4871 68.8419 97.4003 61.6937 95.7187C55.5187 94.3597 49.2221 93.6289 42.9 93.5374C35.5405 93.264 28.1709 93.5565 20.8562 94.4124C20.276 94.4124 19.7196 94.6429 19.3094 95.0531C18.8992 95.4634 18.6687 96.0198 18.6687 96.5999C18.6687 97.1801 18.8992 97.7365 19.3094 98.1467C19.7196 98.557 20.276 98.7874 20.8562 98.7874C26.9729 98.8958 33.0708 99.3124 39.15 100.037C44.775 100.594 50.4562 101.531 56.075 102.219C64.7562 103.344 73.3124 104.219 81.6124 105.844C81.8547 105.919 82.11 105.942 82.3618 105.912C82.6136 105.882 82.8563 105.8 83.0742 105.67C83.2921 105.54 83.4805 105.367 83.627 105.16C83.7736 104.953 83.8751 104.717 83.925 104.469C84.0154 104.231 84.058 103.977 84.0504 103.723C84.0428 103.468 83.9851 103.218 83.8806 102.986C83.7761 102.753 83.6269 102.544 83.4415 102.37C83.256 102.195 83.0381 102.059 82.7999 101.969ZM81.6124 115.581C75.079 113.383 68.4293 111.547 61.6937 110.081C58.8187 109.519 55.8812 109.081 52.95 108.706C50.0125 108.331 47.0812 108.144 44.0875 108.081C37.1953 107.805 30.2931 107.909 23.4125 108.394C23.1281 108.394 22.8465 108.451 22.5845 108.561C22.3226 108.672 22.0855 108.834 21.8873 109.038C21.6891 109.242 21.5339 109.484 21.4309 109.749C21.3279 110.014 21.2791 110.297 21.2875 110.581C21.2872 111.151 21.5091 111.698 21.9059 112.106C22.3027 112.515 22.8432 112.752 23.4125 112.769C27.225 112.769 31.0374 113.394 34.9687 113.831C38.9062 114.269 42.525 114.894 46.3937 115.331L57.7624 116.769C65.6249 117.581 73.3062 118.144 80.7374 119.331C80.9837 119.397 81.2405 119.414 81.4933 119.381C81.746 119.347 81.9897 119.264 82.2104 119.137C82.431 119.009 82.6242 118.839 82.779 118.636C82.9338 118.434 83.0472 118.203 83.1125 117.956C83.2087 117.444 83.1075 116.914 82.8293 116.474C82.551 116.033 82.1163 115.714 81.6124 115.581ZM58.1375 48.3874C59.4291 49.7541 60.6375 51.1916 61.7625 52.6999C62.5041 53.6666 63.1687 54.6874 63.7562 55.7624C63.922 56.1624 64.2032 56.504 64.5638 56.7436C64.9244 56.9833 65.3482 57.1102 65.7812 57.1082C66.2142 57.1062 66.6368 56.9754 66.9952 56.7324C67.3536 56.4894 67.6316 56.1452 67.7937 55.7437C68.0153 55.2086 68.022 54.6086 67.8125 54.0687C67.2968 52.3767 66.649 50.7279 65.875 49.1374C65.125 47.5749 64.3125 46.1374 63.5 44.5749L68.4375 43.0812C69.625 42.7062 70.8333 42.3937 72.0624 42.1437C73.2749 41.902 74.5041 41.7562 75.7499 41.7062C76.0044 41.7267 76.2604 41.6969 76.5033 41.6185C76.7462 41.5401 76.9713 41.4146 77.1657 41.2492C77.3602 41.0838 77.5201 40.8817 77.6364 40.6545C77.7527 40.4273 77.8232 40.1794 77.8437 39.9249C77.8642 39.6705 77.8344 39.4145 77.756 39.1716C77.6776 38.9287 77.5521 38.7036 77.3867 38.5091C77.2213 38.3147 77.0192 38.1548 76.792 38.0385C76.5648 37.9221 76.3169 37.8517 76.0625 37.8312C74.6383 37.5647 73.1973 37.3977 71.75 37.3312H67.4375L60.5062 38.0187L58.4437 38.3312H57.4437C54.2625 38.7687 54.2 42.3937 54.2 42.4562C54.3437 43.5312 54.725 44.5562 55.325 45.4562C56.325 46.3937 57.3875 47.4499 58.1375 48.3874ZM95.1625 46.0187C94.9829 46.1934 94.8402 46.4023 94.7428 46.6331C94.6453 46.8639 94.5951 47.1119 94.5951 47.3624C94.5951 47.613 94.6453 47.8609 94.7428 48.0917C94.8402 48.3225 94.9829 48.5315 95.1625 48.7062C96.5375 50.1478 97.7875 51.6874 98.9125 53.3249C99.725 54.5499 100.433 55.8395 101.037 57.1937H100.662C99.1625 57.4228 97.6833 57.7562 96.225 58.1937C93.1625 59.1312 89.9812 60.4437 87.175 61.1312C86.7497 61.1902 86.3512 61.373 86.0292 61.6569C85.7071 61.9407 85.4757 62.3131 85.3637 62.7275C85.2518 63.142 85.2643 63.5802 85.3996 63.9876C85.535 64.395 85.7872 64.7536 86.1249 65.0187C86.5784 65.3801 87.1538 65.5525 87.7312 65.4999L101.162 64.3124C102.692 64.3791 104.21 64.2749 105.719 63.9999C107.052 63.7253 108.259 63.0231 109.156 61.9999C109.529 61.5302 109.794 60.9849 109.935 60.4021C110.075 59.8192 110.087 59.2127 109.969 58.6249C109.452 57.2943 108.803 56.0191 108.031 54.8187C106.912 53.2935 105.657 51.8731 104.281 50.5749C102.352 48.7645 100.262 47.1328 98.0374 45.6999C97.8347 45.517 97.5956 45.3789 97.3358 45.2949C97.076 45.2108 96.8014 45.1826 96.5299 45.2121C96.2585 45.2416 95.9963 45.3281 95.7606 45.4661C95.525 45.604 95.3211 45.7964 95.1625 46.0187ZM65.75 63.2499C65.5012 63.5099 65.3184 63.8258 65.2169 64.1711C65.1155 64.5163 65.0983 64.8809 65.1669 65.2342C65.2355 65.5874 65.3878 65.9191 65.611 66.2013C65.8343 66.4836 66.122 66.7081 66.45 66.8562C66.8461 67.0247 67.2842 67.069 67.7061 66.983C68.1279 66.8971 68.5138 66.685 68.8125 66.3749L81.3 57.3812C83.425 55.4437 85.6125 53.5687 87.55 51.5062C90.4875 48.4499 93.0437 45.2687 96.0374 41.9562C96.3318 41.8579 96.5982 41.6904 96.8143 41.4678C97.0304 41.2451 97.1899 40.9738 97.2793 40.6766C97.3687 40.3795 97.3854 40.0652 97.3281 39.7603C97.2707 39.4553 97.141 39.1686 96.9497 38.9243C96.7585 38.6799 96.5114 38.4851 96.2291 38.3561C95.9469 38.2272 95.6379 38.1679 95.3279 38.1833C95.018 38.1986 94.7163 38.2882 94.4483 38.4445C94.1802 38.6007 93.9536 38.8191 93.7874 39.0812C90.0749 41.3187 86.4958 43.7562 83.05 46.3937C80.8 48.1437 78.8 50.1374 76.8062 51.9499L65.75 63.2499Z" fill="black"/>
</g>
<defs>
<clipPath id="clip0_1_75">
<rect width="150" height="150" fill="white"/>
</clipPath>
</defs>
</svg>
